<?xml version="1.0"?>
<svg fill="#fff" xmlns="http://www.w3.org/2000/svg" viewBox="0 0 512 512" width="512" height="512">
    <g id="Dairy_Product" data-name="Dairy Product">
        <g id="Outline">
            <path
                d="M312,424a8,8,0,0,0,8-8c0-15.305-32-7.787-32,16,0,23.759,32,31.355,32,16a8,8,0,0,0-8-8,8,8,0,0,1,0-16Z"/>
            <path
                d="M312,376a24,24,0,1,0-24,24A24.027,24.027,0,0,0,312,376Zm-32,0a8,8,0,1,1,8,8A8.009,8.009,0,0,1,280,376Z"/>
            <path
                d="M248,432a24,24,0,1,0,24,24A24.027,24.027,0,0,0,248,432Zm0,32a8,8,0,1,1,8-8A8.009,8.009,0,0,1,248,464Z"/>
            <path
                d="M322.107,489.1c-44.389,15.007-94.309,4.8-128.7-25.929l6.177-16.049c21.362-5.129,30.881-31.415,18.907-49.1l21.13-54.88c34.545,10.672,55.1-44.636,23.044-59.857L280,238.264l23.534,61.12c3.805,9.883,18.734,4.124,14.932-5.749L291.653,224h38.855l9.013,23.412c-24.082,20.134-7.345,65.253,29.025,55.424a8,8,0,1,0-4.172-15.446c-21.163,5.716-26.535-22.154-11.487-29.721a8,8,0,0,0,3.871-10.022l-13.292-34.522A8,8,0,0,0,336,208c-57.49.031-60.77-1.879-63.466,5.125-27.588,74.571-30.723,73.3-27.336,79.21a8,8,0,0,0,5.643,3.919c17.306,2.847,13.042,23.512,3.758,30.056-4.387,3.093-9.458,2.842-15.074-.743a8,8,0,0,0-11.771,3.869l-25.85,67.14a8,8,0,0,0,1.726,8.447c8.594,8.851,2.81,26.125-10.335,26.922a8,8,0,0,0-6.982,5.112l-9.779,25.409a8,8,0,0,0,1.889,8.609c39.9,38.8,97.94,50.382,148.809,33.184a8,8,0,1,0-5.125-15.157Z"/>
            <path
                d="M504,320c-7.485,0-155.017,0-176,0a8,8,0,0,0,0,16H336.7l15.338,168.724A8,8,0,0,0,360,512H472a8,8,0,0,0,7.967-7.276l5.82-64.07a8,8,0,1,0-15.933-1.447L464.693,496H367.306L352.76,336H479.241l-3.588,39.486a8,8,0,0,0,15.934,1.448L495.306,336H504a8,8,0,0,0,0-16Z"/>
            <path
                d="M280.006,191.837a8,8,0,0,0,9.442-6.233A72,72,0,0,1,316.8,142.4a7.98,7.98,0,0,0,.857-.743c10.622-10.628,12.185-30.545-8.325-47.694-3.734-3.122-5.082-8.4-4-11.376.259-.711.919-2.6,5.5-2.587,96.883,1.844,101.742-2.839,103.775,2.714,1.073,2.931-.128,8.064-3.937,11.249-10.122,8.463-15.473,17.653-15.9,27.312-.427,9.557,4.772,18.378,8.433,21.124A72.36,72.36,0,0,1,432,200a8,8,0,0,0,16,0,88.443,88.443,0,0,0-34.539-69.9c-6.537-8.106-.484-17.213,7.471-23.864,14.48-12.106,13.633-36.326-4.932-41.373V8a8,8,0,0,0-8-8H312a8,8,0,0,0-8,8V64.857c-18.754,5-19.439,29.25-4.932,41.38,8.061,6.739,13.96,15.811,7.472,23.863a87.988,87.988,0,0,0-32.768,52.3A8,8,0,0,0,280.006,191.837ZM320,16h80V32H344a8,8,0,0,0,0,16h56V64H320Z"/>
            <path
                d="M88,376a8,8,0,0,0-8-8,32.036,32.036,0,0,1-32-32c0-12.175,17.667-39.777,32-58.924,14.333,19.139,32,46.735,32,58.924a8,8,0,0,0,16,0c0-24.2-37.483-71.67-41.757-77a8,8,0,0,0-12.486,0C69.483,264.33,32,311.8,32,336,32,380.108,88,395.313,88,376Z"/>
            <path
                d="M184,496H160V138.216l40.1-66.825,40.238,66.832V216a8,8,0,0,0,16,0V136c0-4.072.385-.81-48.333-82.5V8a8,8,0,0,0-8-8H56a8,8,0,0,0-8,8V53.785l-6.4,10.67a8,8,0,1,0,13.72,8.23L60.53,64H185.871l-38.4,64H120a8,8,0,0,0,0,16h24v64H16V144H88a8,8,0,0,0,0-16H22.128l.272-.455a8,8,0,0,0-13.72-8.23C.745,132.557,0,133.048,0,136V504a8,8,0,0,0,8,8H184a8,8,0,0,0,0-16ZM64,48V16H192V48Zm80,448H16V432H144Zm0-80H16V224H144Z"/>
            <circle cx="32" cy="96" r="8"/>
            <circle cx="112" cy="368" r="8"/>
            <circle cx="440" cy="232" r="8"/>
            <circle cx="480" cy="408" r="8"/>
            <path d="M440,256a8,8,0,0,0-8,8v32a8,8,0,0,0,16,0V264A8,8,0,0,0,440,256Z"/>
        </g>
    </g>
</svg>
